<?xml version="1.0" encoding="UTF-8"?>
<svg version="1.1" xmlns="http://www.w3.org/2000/svg" width="500" height="500">
<path d="M0 0 C165 0 330 0 500 0 C500 165 500 330 500 500 C335 500 170 500 0 500 C0 335 0 170 0 0 Z " fill="#FEFEFE" transform="translate(0,0)"/>
<path d="M0 0 C-0.33 6.93 -0.66 13.86 -1 21 C0.71832031 21.09023437 2.43664062 21.18046875 4.20703125 21.2734375 C13.81681094 22.01753753 23.21913372 23.87556383 32.6875 25.625 C36.68025303 26.3543461 40.67391949 27.07856966 44.66796875 27.80078125 C46.18878555 28.07631081 46.18878555 28.07631081 47.74032593 28.35740662 C54.85358446 29.63739352 61.97746244 30.83338684 69.11328125 31.98046875 C70.5615052 32.21461487 70.5615052 32.21461487 72.03898621 32.45349121 C75.77193672 33.05608054 79.50483411 33.6579079 83.24130249 34.23834229 C85.79780941 34.63556555 88.35205327 35.04525613 90.90625 35.45703125 C91.65630814 35.56927536 92.40636627 35.68151947 93.17915344 35.79716492 C97.38851015 36.48807448 100.50376944 37.53919815 104 40 C103.42525137 44.28247186 102.39529775 47.8436812 100.6640625 51.796875 C99.94065674 53.46484131 99.94065674 53.46484131 99.20263672 55.16650391 C98.6820166 56.34905762 98.16139648 57.53161133 97.625 58.75 C96.81192077 60.61466582 96.00104421 62.48027913 95.19033813 64.34597778 C94.63363476 65.62681058 94.07615227 66.90730499 93.51791382 68.18746948 C91.58433357 72.62808377 89.69331143 77.08494954 87.828125 81.5546875 C87.33103027 82.74352539 86.83393555 83.93236328 86.32177734 85.15722656 C85.37087243 87.43644582 84.42318295 89.71700974 83.47900391 91.99902344 C82.83584229 93.53478027 82.83584229 93.53478027 82.1796875 95.1015625 C81.80569824 96.00213379 81.43170898 96.90270508 81.04638672 97.83056641 C80 100 80 100 78 102 C71.77678709 102.3946959 65.92467296 101.50679955 59.80078125 100.4609375 C58.82371216 100.29950256 57.84664307 100.13806763 56.83996582 99.97174072 C53.66310716 99.44552453 50.48782006 98.91041515 47.3125 98.375 C45.11623227 98.00898603 42.91986078 97.64359407 40.72338867 97.27880859 C37.38821607 96.72480541 34.05313383 96.17031055 30.71846008 95.61331177 C23.73341744 94.44759877 16.74443865 93.31099901 9.75 92.203125 C8.89286911 92.06681671 8.03573822 91.93050842 7.15263367 91.79006958 C2.31171083 91.0200945 2.31171083 91.0200945 -2.53060913 90.25897217 C-4.70213922 89.9193505 -6.87261194 89.57359077 -9.04296875 89.2265625 C-10.85317505 88.94159912 -10.85317505 88.94159912 -12.69995117 88.65087891 C-20.98276657 87.01723343 -20.98276657 87.01723343 -24 84 C-24.12374508 76.90126824 -22.52862134 69.67030102 -21.22265625 62.71484375 C-20.87039616 60.78190952 -20.51818417 58.84896653 -20.16601562 56.91601562 C-19.61719972 53.93690342 -19.066336 50.95818229 -18.51391602 47.97973633 C-16.17894729 35.34781787 -14.20393963 22.79248203 -13 10 C-13.79575439 9.94247559 -14.59150879 9.88495117 -15.41137695 9.82568359 C-27.01298701 8.98701299 -27.01298701 8.98701299 -31 5 C-31.3125 1.5 -31.3125 1.5 -31 -2 C-23.52262856 -6.98491429 -8.32469383 -1.53174367 0 0 Z " fill="#FF9E04" transform="translate(111,179)"/>
<path d="M0 0 C3.96 0 7.92 0 12 0 C14.7661134 5.2358575 16.96873677 10.4470686 18.94140625 16.02734375 C20.04259006 19.11959791 21.19818029 22.18575699 22.375 25.25 C22.78878906 26.32765625 23.20257813 27.4053125 23.62890625 28.515625 C24.6134717 31.01771155 25.6180827 33.50310558 26.65234375 35.984375 C26.92836426 36.65307617 27.20438477 37.32177734 27.48876953 38.01074219 C28.02520315 39.30619598 28.56880354 40.59871269 29.12060547 41.88769531 C30.56228902 45.38147939 31.41075206 48.21272674 31 52 C30 53 30 53 27.05859375 53.09765625 C25.86363281 53.08605469 24.66867188 53.07445312 23.4375 53.0625 C21.64119141 53.04896484 21.64119141 53.04896484 19.80859375 53.03515625 C18.88175781 53.02355469 17.95492187 53.01195312 17 53 C14 46.25 14 46.25 14 44 C8.06 44 2.12 44 -4 44 C-4.33 45.98 -4.66 47.96 -5 50 C-5.66 50.99 -6.32 51.98 -7 53 C-9.75 53.36328125 -9.75 53.36328125 -13 53.3125 C-14.60875 53.30669922 -14.60875 53.30669922 -16.25 53.30078125 C-19 53 -19 53 -21 51 C-20.58522497 46.60497998 -18.82007674 42.53213868 -17.25 38.4375 C-16.98268066 37.73874756 -16.71536133 37.03999512 -16.43994141 36.32006836 C-15.89294136 34.89705666 -15.34363624 33.4749288 -14.79199219 32.05371094 C-14.05719824 30.14832048 -13.34407068 28.23461309 -12.6328125 26.3203125 C-12.01019531 24.70769531 -12.01019531 24.70769531 -11.375 23.0625 C-11.01148438 22.10472656 -10.64796875 21.14695313 -10.2734375 20.16015625 C-9 18 -9 18 -6.8515625 17.18359375 C-5.93503906 17.09271484 -5.93503906 17.09271484 -5 17 C-2.42924159 20.01447835 -1.47792934 22.35979771 -0.8125 26.25 C-0.65394531 27.14203125 -0.49539062 28.0340625 -0.33203125 28.953125 C-0.22246094 29.62859375 -0.11289063 30.3040625 0 31 C2.64 31 5.28 31 8 31 C6.69293944 26.2303755 5.24463396 21.55117374 3.4296875 16.94921875 C3.15398926 16.24603516 2.87829102 15.54285156 2.59423828 14.81835938 C2.03844594 13.41553821 1.47195796 12.01690003 0.89404297 10.62304688 C-0.82809844 6.26357503 -0.96478111 4.82390556 0 0 Z " fill="#FEFBF8" transform="translate(219,223)"/>
<path d="M0 0 C5.00230198 2.45567552 8.49851535 5.9970307 11 11 C11.59670968 16.96709677 10.3813207 21.1544937 7 26 C3.11417409 29.52435373 -0.54977845 30.81450566 -5.6953125 31.15234375 C-10.65752131 30.82433334 -14.312831 28.89192252 -17.609375 25.1953125 C-20.6424075 20.81615884 -21.86723591 17.39613453 -21 12 C-19.54835468 7.69372253 -17.69682644 4.67983067 -14.4375 1.5 C-9.55755931 -0.62942867 -5.24443173 -0.77376862 0 0 Z " fill="#FF7516" transform="translate(146,279)"/>
<path d="M0 0 C3.93792318 2.56821077 6.74612583 5.61725165 8.875 9.875 C9.41391 16.12635596 8.69775726 20.76291042 4.875 25.875 C1.42648509 29.05549561 -2.04632617 30.1171644 -6.6875 30.3125 C-12.14608636 30.0340007 -15.69584251 28.42003512 -19.4375 24.375 C-22.72923395 19.49835711 -22.73893534 14.57837029 -22.125 8.875 C-19.93063606 3.93768113 -17.01454524 1.69812396 -12.20703125 -0.43359375 C-7.75853947 -1.91086025 -4.34939627 -1.56578266 0 0 Z " fill="#FF7415" transform="translate(104.125,272.125)"/>
<path d="M0 0 C4.64619015 0.06166453 9.10075337 0.74242528 13.67016602 1.54003906 C14.52987 1.68470108 15.38957397 1.8293631 16.27532959 1.97840881 C19.04219473 2.44563723 21.80735238 2.922192 24.57250977 3.39941406 C26.47241373 3.72304345 28.37239781 4.04620286 30.27246094 4.36889648 C33.99876633 5.00284571 37.7243773 5.64066188 41.44946289 6.28173828 C45.70187135 7.01278835 49.9566471 7.72767686 54.21313477 8.43457031 C56.2496473 8.77669576 58.28611168 9.11910808 60.32250977 9.46191406 C61.21397705 9.60854492 62.10544434 9.75517578 63.02392578 9.90625 C67.08764107 10.60309575 70.7386009 11.39758317 74.51000977 13.14941406 C74.63500977 16.02441406 74.63500977 16.02441406 74.51000977 19.14941406 C72.51000977 21.14941406 72.51000977 21.14941406 69.95544434 21.20384216 C61.80568143 20.46482523 53.78866469 19.34349311 45.72875977 17.93457031 C43.84308289 17.61086708 43.84308289 17.61086708 41.91931152 17.28062439 C39.28687429 16.82714444 36.65498 16.37133688 34.02368164 15.91137695 C30.66176512 15.32402578 27.29814243 14.74718758 23.9338913 14.17337894 C20.6979037 13.62005555 17.4633979 13.05822012 14.22875977 12.49707031 C13.0266687 12.29179214 11.82457764 12.08651398 10.58605957 11.87501526 C9.4671936 11.67818649 8.34832764 11.48135773 7.19555664 11.27856445 C6.21550659 11.10837296 5.23545654 10.93818146 4.22570801 10.76283264 C-2.36535224 9.27405206 -2.36535224 9.27405206 -4.48999023 7.14941406 C-4.61499023 4.14941406 -4.61499023 4.14941406 -4.48999023 1.14941406 C-3.48999023 0.14941406 -3.48999023 0.14941406 0 0 Z " fill="#FFA008" transform="translate(10.489990234375,216.8505859375)"/>
<path d="M0 0 C9 0 9 0 11.41015625 2.40625 C11.95542969 3.4271875 12.50070312 4.448125 13.0625 5.5 C13.63097656 6.5209375 14.19945312 7.541875 14.78515625 8.59375 C15.38650391 9.78484375 15.38650391 9.78484375 16 11 C18.55266817 8.57603779 20.57984679 6.35171311 22.25 3.25 C22.8275 2.1775 23.405 1.105 24 0 C27.3 0 30.6 0 34 0 C34 5.94 34 11.88 34 18 C31.36 18 28.72 18 26 18 C25.67 15.03 25.34 12.06 25 9 C23.35 11.97 21.7 14.94 20 18 C17.69 18 15.38 18 13 18 C11.35 15.03 9.7 12.06 8 9 C7.67 11.97 7.34 14.94 7 18 C4.69 18 2.38 18 0 18 C0 12.06 0 6.12 0 0 Z " fill="#FFA30E" transform="translate(396,253)"/>
<path d="M0 0 C4.3003125 -0.061875 4.3003125 -0.061875 8.6875 -0.125 C9.58170654 -0.14320801 10.47591309 -0.16141602 11.3972168 -0.18017578 C15.65341271 -0.20976916 19.2093139 -0.19500203 23 2 C23.9375 4.4375 23.9375 4.4375 24 7 C23.01 8.485 23.01 8.485 22 10 C22.99 10.33 23.98 10.66 25 11 C24.6875 13.375 24.6875 13.375 24 16 C20.74610012 18.16926659 19.86604043 18.24080049 16.11328125 18.1953125 C15.17548828 18.18886719 14.23769531 18.18242187 13.27148438 18.17578125 C11.80678711 18.15064453 11.80678711 18.15064453 10.3125 18.125 C9.32443359 18.11597656 8.33636719 18.10695313 7.31835938 18.09765625 C4.87880294 18.07408566 2.43937099 18.03821469 0 18 C0 12.06 0 6.12 0 0 Z " fill="#FFFAF4" transform="translate(166,253)"/>
<path d="M0 0 C3.96 0 7.92 0 12 0 C14.7661134 5.2358575 16.96873677 10.4470686 18.94140625 16.02734375 C20.04259006 19.11959791 21.19818029 22.18575699 22.375 25.25 C22.78878906 26.32765625 23.20257813 27.4053125 23.62890625 28.515625 C24.6134717 31.01771155 25.6180827 33.50310558 26.65234375 35.984375 C26.92836426 36.65307617 27.20438477 37.32177734 27.48876953 38.01074219 C28.02520315 39.30619598 28.56880354 40.59871269 29.12060547 41.88769531 C30.56228902 45.38147939 31.41075206 48.21272674 31 52 C30 53 30 53 27.05859375 53.09765625 C25.86363281 53.08605469 24.66867188 53.07445312 23.4375 53.0625 C21.64119141 53.04896484 21.64119141 53.04896484 19.80859375 53.03515625 C18.88175781 53.02355469 17.95492187 53.01195312 17 53 C14 46.25 14 46.25 14 44 C8.06 44 2.12 44 -4 44 C-4.33 45.98 -4.66 47.96 -5 50 C-5.66 50.99 -6.32 51.98 -7 53 C-9.75 53.36328125 -9.75 53.36328125 -13 53.3125 C-14.60875 53.30669922 -14.60875 53.30669922 -16.25 53.30078125 C-19 53 -19 53 -21 51 C-20.58522497 46.60497998 -18.82007674 42.53213868 -17.25 38.4375 C-16.98268066 37.73874756 -16.71536133 37.03999512 -16.43994141 36.32006836 C-15.89294136 34.89705666 -15.34363624 33.4749288 -14.79199219 32.05371094 C-14.05719824 30.14832048 -13.34407068 28.23461309 -12.6328125 26.3203125 C-12.01019531 24.70769531 -12.01019531 24.70769531 -11.375 23.0625 C-11.01148438 22.10472656 -10.64796875 21.14695313 -10.2734375 20.16015625 C-9 18 -9 18 -6.8515625 17.18359375 C-5.93503906 17.09271484 -5.93503906 17.09271484 -5 17 C-2.42924159 20.01447835 -1.47792934 22.35979771 -0.8125 26.25 C-0.65394531 27.14203125 -0.49539062 28.0340625 -0.33203125 28.953125 C-0.22246094 29.62859375 -0.11289063 30.3040625 0 31 C2.64 31 5.28 31 8 31 C6.69293944 26.2303755 5.24463396 21.55117374 3.4296875 16.94921875 C3.15398926 16.24603516 2.87829102 15.54285156 2.59423828 14.81835938 C2.03844594 13.41553821 1.47195796 12.01690003 0.89404297 10.62304688 C-0.82809844 6.26357503 -0.96478111 4.82390556 0 0 Z M1 2 C2.84009308 9.26352531 5.10287904 16.04960953 8.01171875 22.95703125 C9.04950763 26.15243653 9.18452289 28.66362671 9 32 C6.03 32 3.06 32 0 32 C-2.30440013 27.70543612 -3.78184562 23.68520915 -5 19 C-5.99 19 -6.98 19 -8 19 C-8.29132813 19.83660156 -8.58265625 20.67320312 -8.8828125 21.53515625 C-11.44478027 28.81017794 -14.13546796 35.99778751 -17.11962891 43.11157227 C-18.2775537 45.92427272 -19 47.92271727 -19 51 C-15.37 51 -11.74 51 -8 51 C-6.68 48.36 -5.36 45.72 -4 43 C1.94 43 7.88 43 14 43 C15.32 45.64 16.64 48.28 18 51 C21.63 51 25.26 51 29 51 C28.45058806 45.92601911 27.28989902 41.75947142 25.3125 37.0625 C24.76650446 35.74680816 24.22229295 34.43037482 23.6796875 33.11328125 C23.40092773 32.43861816 23.12216797 31.76395508 22.83496094 31.06884766 C21.4583518 27.65791612 20.20403619 24.20295155 18.9375 20.75 C16.57587686 14.35384039 13.91334612 8.16943884 11 2 C7.7 2 4.4 2 1 2 Z " fill="#FB983B" transform="translate(219,223)"/>
<path d="M0 0 C7.75221419 0.94711411 15.4472496 2.18099082 23.14453125 3.49975586 C24.47914781 3.71927157 25.81378312 3.93867334 27.1484375 4.15795898 C28.40527344 4.37258789 29.66210938 4.5872168 30.95703125 4.80834961 C32.09785156 5.00098389 33.23867187 5.19361816 34.4140625 5.39208984 C37.14453125 6.06225586 37.14453125 6.06225586 39.14453125 8.06225586 C39.39453125 11.06225586 39.39453125 11.06225586 39.14453125 14.06225586 C38.48453125 14.72225586 37.82453125 15.38225586 37.14453125 16.06225586 C35.16772461 16.06152344 35.16772461 16.06152344 32.734375 15.70678711 C31.83428711 15.58037842 30.93419922 15.45396973 30.00683594 15.32373047 C29.04165039 15.17556885 28.07646484 15.02740723 27.08203125 14.87475586 C25.60911621 14.65928101 25.60911621 14.65928101 24.10644531 14.43945312 C21.116631 13.99534213 18.13040758 13.53205634 15.14453125 13.06225586 C14.26361816 12.9259375 13.38270508 12.78961914 12.47509766 12.64916992 C10.11257258 12.27888555 7.75317462 11.89394151 5.39453125 11.49975586 C4.68675537 11.38543213 3.97897949 11.2711084 3.24975586 11.15332031 C-1.619395 10.29832961 -1.619395 10.29832961 -3.85546875 8.06225586 C-4.10546875 5.06225586 -4.10546875 5.06225586 -3.85546875 2.06225586 C-1.85546875 0.06225586 -1.85546875 0.06225586 0 0 Z " fill="#FFA20B" transform="translate(40.85546875,251.937744140625)"/>
<path d="M0 0 C2.4140625 0.1015625 2.4140625 0.1015625 5.625 0.625 C6.86121094 0.82351562 8.09742188 1.02203125 9.37109375 1.2265625 C10.08507324 1.34676758 10.79905273 1.46697266 11.53466797 1.59082031 C14.40685678 2.06752743 17.28320793 2.51387089 20.16015625 2.9609375 C22.3360857 3.30635937 24.51186676 3.65271735 26.6875 4 C28.28295654 4.2487085 28.28295654 4.2487085 29.91064453 4.50244141 C31.41473877 4.74873291 31.41473877 4.74873291 32.94921875 5 C33.84987061 5.144375 34.75052246 5.28875 35.6784668 5.4375 C38 6 38 6 41 8 C41.3125 11 41.3125 11 41 14 C39 16 39 16 37.14453125 16.06225586 C29.39231706 15.11514175 21.69728165 13.88126504 14 12.5625 C12.66538344 12.34298429 11.33074813 12.12358252 9.99609375 11.90429688 C8.11083984 11.58235352 8.11083984 11.58235352 6.1875 11.25390625 C5.04667969 11.06127197 3.90585937 10.8686377 2.73046875 10.67016602 C0 10 0 10 -2 8 C-2.25 5 -2.25 5 -2 2 C-1.34 1.34 -0.68 0.68 0 0 Z " fill="#FFA109" transform="translate(49,194)"/>
<path d="M0 0 C3.19999014 1.26205219 5.42518973 2.85037946 7 6 C7.42576871 9.83191838 7.30321315 11.52949683 5.1875 14.8125 C1.79154251 18.20845749 -1.2557598 18.20306663 -5.875 18.3125 C-9.9320262 18.28797143 -11.63187367 18.2165449 -15.1875 16.125 C-17.34921479 13.59057576 -17.9432946 12.51034861 -18.3125 9.1875 C-17.92835642 5.2692355 -16.70743683 3.78706733 -14 1 C-9.82297704 -1.08851148 -4.54840084 -0.44475888 0 0 Z " fill="#FFA20D" transform="translate(386,253)"/>
<path d="M0 0 C2.84625 -0.061875 5.6925 -0.12375 8.625 -0.1875 C9.51010254 -0.21481201 10.39520508 -0.24212402 11.30712891 -0.27026367 C16.31168198 -0.32264083 19.62166755 0.30073679 24 3 C24.125 6.375 24.125 6.375 24 10 C23.34 10.66 22.68 11.32 22 12 C22.66 12.66 23.32 13.32 24 14 C24 15.32 24 16.64 24 18 C21.69 18 19.38 18 17 18 C16.814375 17.360625 16.62875 16.72125 16.4375 16.0625 C15.05753944 13.57873787 15.05753944 13.57873787 11.375 13.25 C10.26125 13.1675 9.1475 13.085 8 13 C8 14.65 8 16.3 8 18 C5.36 18 2.72 18 0 18 C0 12.06 0 6.12 0 0 Z " fill="#FFA411" transform="translate(311,253)"/>
<path d="M0 0 C2.31 0 4.62 0 7 0 C7 2.64 7 5.28 7 8 C8.14275391 7.13375 8.14275391 7.13375 9.30859375 6.25 C15.86432362 1.53576729 19.87574272 -1.0832343 28 0 C24.86543569 3.31368227 21.89139221 5.66516468 18 8 C18 8.66 18 9.32 18 10 C19.61893909 11.25178683 21.29616405 12.42897581 23 13.5625 C24.68178516 14.68602592 26.35279263 15.82636475 28 17 C28 17.33 28 17.66 28 18 C20.84593383 18.74521523 16.69776694 17.34707015 11 13 C7.75150023 14.72226496 7.75150023 14.72226496 7 18 C4.69 18 2.38 18 0 18 C0 12.06 0 6.12 0 0 Z " fill="#FFFAF5" transform="translate(142,226)"/>
<path d="M0 0 C5.83189407 1.5815306 7.68497068 6.0205578 10.6875 11 C11.49354487 12.17113578 12.30466854 13.3388266 13.125 14.5 C14.6875 17 14.6875 17 14.6875 19 C12.3775 19 10.0675 19 7.6875 19 C7.3575 18.01 7.0275 17.02 6.6875 16 C4.70763918 16.11347619 2.72858402 16.2410935 0.75 16.375 C-0.35214844 16.44460937 -1.45429688 16.51421875 -2.58984375 16.5859375 C-3.48832031 16.72257813 -4.38679688 16.85921875 -5.3125 17 C-5.6425 17.66 -5.9725 18.32 -6.3125 19 C-8.9525 19 -11.5925 19 -14.3125 19 C-12.59268637 16.01448083 -10.86242899 13.03647984 -9.109375 10.0703125 C-8.1059504 8.35576525 -7.11984623 6.62961633 -6.203125 4.8671875 C-4.49251417 1.76107836 -3.44231876 1.03919057 0 0 Z " fill="#FFA109" transform="translate(285.3125,225)"/>
<path d="M0 0 C3.80859375 0.58984375 3.80859375 0.58984375 5.41357422 2.17138672 C6.98646702 4.39805673 8.38201241 6.66708682 9.74609375 9.02734375 C10.23916016 9.82978516 10.73222656 10.63222656 11.24023438 11.45898438 C14.80859375 17.32376365 14.80859375 17.32376365 14.80859375 18.58984375 C12.16859375 18.58984375 9.52859375 18.58984375 6.80859375 18.58984375 C6.47859375 17.92984375 6.14859375 17.26984375 5.80859375 16.58984375 C2.99260885 16.12085412 2.99260885 16.12085412 -0.25390625 15.96484375 C-1.91099609 15.85269531 -1.91099609 15.85269531 -3.6015625 15.73828125 C-4.45621094 15.68929688 -5.31085938 15.6403125 -6.19140625 15.58984375 C-6.52140625 16.57984375 -6.85140625 17.56984375 -7.19140625 18.58984375 C-9.50140625 18.58984375 -11.81140625 18.58984375 -14.19140625 18.58984375 C-12.7111227 14.40474891 -10.61714901 11.00672782 -8.12890625 7.33984375 C-7.41605469 6.2828125 -6.70320313 5.22578125 -5.96875 4.13671875 C-3.53829479 0.65395657 -3.53829479 0.65395657 0 0 Z " fill="#FFA109" transform="translate(294.19140625,252.41015625)"/>
<path d="M0 0 C2.7816469 1.37037017 3.93751304 2.59376522 6 5 C6 5.66 6 6.32 6 7 C-0.15234375 7.09765625 -0.15234375 7.09765625 -2 7 C-2.33 6.67 -2.66 6.34 -3 6 C-4.99958364 5.95919217 -7.00045254 5.95745644 -9 6 C-9.74957157 9.47147842 -9.74957157 9.47147842 -10 13 C-8.00045254 13.04254356 -5.99958364 13.04080783 -4 13 C-3.67 12.67 -3.34 12.34 -3 12 C-0.32941149 11.85884839 2.32432238 11.95752893 5 12 C4.75 13.875 4.75 13.875 4 16 C-0.96197213 19.33548246 -7.30526054 18.68481044 -13 18 C-16.3125 16 -16.3125 16 -18 13 C-18.6478122 9.97087813 -18.45617174 8.19320216 -18 5 C-13.29041324 -1.12246278 -7.24347062 -0.86770742 0 0 Z " fill="#FFA20C" transform="translate(360,253)"/>
<path d="M0 0 C6.93 0 13.86 0 21 0 C21 5 21 5 18.8125 7.23828125 C17.884375 7.92277344 16.95625 8.60726563 16 9.3125 C15.071875 10.00988281 14.14375 10.70726562 13.1875 11.42578125 C12.465625 11.94527344 11.74375 12.46476562 11 13 C14.3 13.33 17.6 13.66 21 14 C21 15.32 21 16.64 21 18 C14.4 18 7.8 18 1 18 C1 13 1 13 2.96875 10.98046875 C3.8040625 10.38878906 4.639375 9.79710937 5.5 9.1875 C6.3353125 8.58292969 7.170625 7.97835938 8.03125 7.35546875 C8.6809375 6.90816406 9.330625 6.46085937 10 6 C6.7 5.67 3.4 5.34 0 5 C0 3.35 0 1.7 0 0 Z " fill="#FFA310" transform="translate(257,253)"/>
<path d="M0 0 C6.93 0 13.86 0 21 0 C21 1.65 21 3.3 21 5 C16.71 5 12.42 5 8 5 C8 5.66 8 6.32 8 7 C11.63 7 15.26 7 19 7 C19 8.32 19 9.64 19 11 C15.37 11 11.74 11 8 11 C8 13.31 8 15.62 8 18 C5.36 18 2.72 18 0 18 C0 12.06 0 6.12 0 0 Z " fill="#FFF3E4" transform="translate(184,226)"/>
<path d="M0 0 C7.26 0 14.52 0 22 0 C22 1.65 22 3.3 22 5 C19.69 5 17.38 5 15 5 C15 9.29 15 13.58 15 18 C12.36 18 9.72 18 7 18 C7 13.71 7 9.42 7 5 C4.69 5 2.38 5 0 5 C0 3.35 0 1.7 0 0 Z " fill="#FFA71A" transform="translate(301,226)"/>
<path d="M0 0 C5.445 0.495 5.445 0.495 11 1 C11 1.33 11 1.66 11 2 C7.7 2 4.4 2 1 2 C1.27263672 2.69561035 1.54527344 3.3912207 1.82617188 4.10791016 C3.06123169 7.27631361 4.2807248 10.45049068 5.5 13.625 C5.92925781 14.71941406 6.35851562 15.81382812 6.80078125 16.94140625 C7.40986328 18.53662109 7.40986328 18.53662109 8.03125 20.1640625 C8.40830078 21.13811035 8.78535156 22.1121582 9.17382812 23.11572266 C10.0652302 26.22772741 10.22154583 28.77884022 10 32 C8.4211316 33.5788684 6.80707663 33.28319742 4.625 33.375 C0.29959677 33.29959677 0.29959677 33.29959677 -1.9375 31.0625 C-3.31271462 27.0986461 -4.23664634 23.12210978 -5 19 C-5.99 19 -6.98 19 -8 19 C-8.24492187 20.27101562 -8.48984375 21.54203125 -8.7421875 22.8515625 C-9.94949675 28.28764806 -11.9662488 33.25654751 -14.125 38.375 C-14.86148542 40.13084241 -15.59347283 41.88858028 -16.3203125 43.6484375 C-16.64273926 44.41333496 -16.96516602 45.17823242 -17.29736328 45.96630859 C-18.16327856 48.11398035 -18.16327856 48.11398035 -18 51 C-14.37 51.33 -10.74 51.66 -7 52 C-7 52.33 -7 52.66 -7 53 C-8.95803507 53.05389087 -10.91648909 53.09274217 -12.875 53.125 C-13.96554688 53.14820313 -15.05609375 53.17140625 -16.1796875 53.1953125 C-19 53 -19 53 -21 51 C-20.58522497 46.60497998 -18.82007674 42.53213868 -17.25 38.4375 C-16.98268066 37.73874756 -16.71536133 37.03999512 -16.43994141 36.32006836 C-15.89294136 34.89705666 -15.34363624 33.4749288 -14.79199219 32.05371094 C-14.05719824 30.14832048 -13.34407068 28.23461309 -12.6328125 26.3203125 C-12.01019531 24.70769531 -12.01019531 24.70769531 -11.375 23.0625 C-11.01148438 22.10472656 -10.64796875 21.14695313 -10.2734375 20.16015625 C-9 18 -9 18 -6.8515625 17.18359375 C-5.93503906 17.09271484 -5.93503906 17.09271484 -5 17 C-2.42924159 20.01447835 -1.47792934 22.35979771 -0.8125 26.25 C-0.65394531 27.14203125 -0.49539062 28.0340625 -0.33203125 28.953125 C-0.22246094 29.62859375 -0.11289063 30.3040625 0 31 C2.64 31 5.28 31 8 31 C6.69293944 26.2303755 5.24463396 21.55117374 3.4296875 16.94921875 C3.15398926 16.24603516 2.87829102 15.54285156 2.59423828 14.81835938 C2.03844594 13.41553821 1.47195796 12.01690003 0.89404297 10.62304688 C-0.82809844 6.26357503 -0.96478111 4.82390556 0 0 Z " fill="#FB9E45" transform="translate(219,223)"/>
<path d="M0 0 C3.03336186 -0.22893297 5.97465051 -0.36475845 9 0 C11.0625 2 11.0625 2 12 4 C14.46800047 2.84826645 16.04783565 1.95216435 18 0 C20.68839385 -0.26991906 23.29141936 -0.08737357 26 0 C26 0.66 26 1.32 26 2 C24.71570881 3.05610278 23.3969141 4.07048389 22.0625 5.0625 C18.72016501 7.85662132 17.43380047 9.57195244 17 13.9375 C16.9638415 15.29118383 16.95090154 16.64672372 17 18 C14.69 18 12.38 18 10 18 C10 15.03 10 12.06 10 9 C8.68 8.34 7.36 7.68 6 7 C4.296875 5.2734375 4.296875 5.2734375 2.75 3.375 C2.22921875 2.74335938 1.7084375 2.11171875 1.171875 1.4609375 C0.78515625 0.97882813 0.3984375 0.49671875 0 0 Z " fill="#FFA30E" transform="translate(244,226)"/>
<path d="M0 0 C2.64 0 5.28 0 8 0 C8 5.94 8 11.88 8 18 C5.36 18 2.72 18 0 18 C0 12.06 0 6.12 0 0 Z " fill="#FFA616" transform="translate(325,226)"/>
<path d="M0 0 C2.31 0 4.62 0 7 0 C7 5.94 7 11.88 7 18 C4.69 18 2.38 18 0 18 C0 12.06 0 6.12 0 0 Z " fill="#FFFDFB" transform="translate(173,226)"/>
<path d="M0 0 C-3.06718925 2.6915517 -4.92165507 3.3672868 -8.984375 3.29296875 C-9.91894531 3.28330078 -10.85351562 3.27363281 -11.81640625 3.26367188 C-12.78449219 3.23853516 -13.75257813 3.21339844 -14.75 3.1875 C-15.73355469 3.17396484 -16.71710938 3.16042969 -17.73046875 3.14648438 C-20.15420415 3.11118726 -22.57682145 3.06188054 -25 3 C-25 2.01 -25 1.02 -25 0 C-21.39627603 -0.19676145 -17.7920131 -0.38081639 -14.1875 -0.5625 C-13.16333984 -0.61857422 -12.13917969 -0.67464844 -11.08398438 -0.73242188 C-10.10107422 -0.78076172 -9.11816406 -0.82910156 -8.10546875 -0.87890625 C-7.19949951 -0.9260376 -6.29353027 -0.97316895 -5.36010742 -1.02172852 C-3 -1 -3 -1 0 0 Z " fill="#FF840B" transform="translate(190,271)"/>
<path d="M0 0 C3.5 0.125 3.5 0.125 4.5 1.125 C4.625 4.125 4.625 4.125 4.5 7.125 C3.5 8.125 3.5 8.125 0 8.25 C-3.5 8.125 -3.5 8.125 -4.5 7.125 C-4.625 4.125 -4.625 4.125 -4.5 1.125 C-3.5 0.125 -3.5 0.125 0 0 Z " fill="#FFFBF6" transform="translate(380.5,257.875)"/>
<path d="M0 0 C0.49628906 0.34933594 0.99257812 0.69867188 1.50390625 1.05859375 C6.08166307 4.12490904 9.42536726 5.43115992 15 6 C15.33 6.66 15.66 7.32 16 8 C9.60386689 8.51169065 6.26653619 8.012599 1 4 C0.01 4 -0.98 4 -2 4 C-2.66 4.66 -3.32 5.32 -4 6 C-3.6875 4.125 -3.6875 4.125 -3 2 C-2.01 1.34 -1.02 0.68 0 0 Z " fill="#FF8C17" transform="translate(153,238)"/>
<path d="M0 0 C1.1171875 1.71484375 1.1171875 1.71484375 2 4 C1.3203125 6.25390625 1.3203125 6.25390625 0.125 8.5625 C-1.66747535 12.07786657 -1.66747535 12.07786657 -2 16 C1.63 16.33 5.26 16.66 9 17 C9 17.33 9 17.66 9 18 C7.04196493 18.05389087 5.08351091 18.09274217 3.125 18.125 C1.48917969 18.15980469 1.48917969 18.15980469 -0.1796875 18.1953125 C-3 18 -3 18 -5 16 C-4.58652435 12.19996189 -3.26936567 8.75346291 -1.9375 5.1875 C-1.57527344 4.21167969 -1.21304688 3.23585938 -0.83984375 2.23046875 C-0.42412109 1.12638672 -0.42412109 1.12638672 0 0 Z " fill="#FBA756" transform="translate(203,258)"/>
<path d="M0 0 C3.63 0.33 7.26 0.66 11 1 C11 1.33 11 1.66 11 2 C7.7 2 4.4 2 1 2 C1.66 4.31 2.32 6.62 3 9 C2.34 9.66 1.68 10.32 1 11 C-0.79132273 6.46900722 -1.0036454 5.01822701 0 0 Z " fill="#FBA95A" transform="translate(219,223)"/>
<path d="M0 0 C3.3 0 6.6 0 10 0 C9.67 0.99 9.34 1.98 9 3 C6.03 3 3.06 3 0 3 C0 2.01 0 1.02 0 0 Z " fill="#FF9934" transform="translate(173,264)"/>
<path d="M0 0 C1.46726798 3.81489674 0.43336419 6.29011622 -1 10 C-1.99 9.34 -2.98 8.68 -4 8 C-3.50168276 4.31245243 -2.89932357 2.39509338 0 0 Z " fill="#FEF3E6" transform="translate(208,241)"/>
<path d="M0 0 C2.64 0 5.28 0 8 0 C8.33 0.99 8.66 1.98 9 3 C6.03 3 3.06 3 0 3 C0 2.01 0 1.02 0 0 Z " fill="#FFFDFA" transform="translate(319,258)"/>
<path d="M0 0 C2.97 0 5.94 0 9 0 C8.67 0.99 8.34 1.98 8 3 C5.36 3 2.72 3 0 3 C0 2.01 0 1.02 0 0 Z " fill="#FF962E" transform="translate(173,258)"/>
<path d="M0 0 C3.5219293 4.56403441 5.33577328 8.12396752 5 14 C2.42924159 10.98552165 1.47792934 8.64020229 0.8125 4.75 C0.65394531 3.85796875 0.49539062 2.9659375 0.33203125 2.046875 C0.22246094 1.37140625 0.11289063 0.6959375 0 0 Z " fill="#FB983A" transform="translate(221,232)"/>
<path d="M0 0 C1.35432675 1.31200404 2.68733482 2.64631404 4 4 C4 4.33 4 4.66 4 5 C2.02 5 0.04 5 -2 5 C-1.34 3.35 -0.68 1.7 0 0 Z " fill="#FFEDCF" transform="translate(285,232)"/>
<path d="M0 0 C1.5 1.375 1.5 1.375 3 3 C3 3.66 3 4.32 3 5 C1.02 5 -0.96 5 -3 5 C-2.01 3.35 -1.02 1.7 0 0 Z " fill="#FFEED4" transform="translate(294,259)"/>
<path d="M0 0 C2.59482129 2.59482129 2.69990302 4.39883625 3 8 C2.34 8.66 1.68 9.32 1 10 C0.63720544 8.71073008 0.28503302 7.41846728 -0.0625 6.125 C-0.35833984 5.04605469 -0.35833984 5.04605469 -0.66015625 3.9453125 C-1 2 -1 2 0 0 Z " fill="#FBA655" transform="translate(226,244)"/>
</svg>
